<svg width="1920" height="1080" viewBox="0 0 1920 1080" fill="none" xmlns="http://www.w3.org/2000/svg">
<rect width="1920" height="1080" fill="white"/>
<path d="M228.842 103.28H233.896L242.94 128.17V129.5H239.558L237.316 123.078H225.422L223.18 129.5H219.836V128.17L228.842 103.28ZM229.906 110.196L226.562 119.81H236.176L232.832 110.196C232.3 108.676 231.958 107.46 231.654 106.054H231.084C230.78 107.46 230.438 108.676 229.906 110.196ZM254.011 111.26C258.609 111.26 261.307 114.148 261.915 116.77V117.91H258.571C258.077 115.82 256.519 114.224 254.011 114.224C250.781 114.224 248.691 116.846 248.691 120.722C248.691 124.598 250.781 127.22 254.011 127.22C256.557 127.22 258.115 125.624 258.609 123.458H261.991V124.598C261.345 127.296 258.609 130.184 254.011 130.184C248.805 130.184 245.157 126.27 245.157 120.722C245.157 115.174 248.805 111.26 254.011 111.26ZM273.345 111.26C277.943 111.26 280.641 114.148 281.249 116.77V117.91H277.905C277.411 115.82 275.853 114.224 273.345 114.224C270.115 114.224 268.025 116.846 268.025 120.722C268.025 124.598 270.115 127.22 273.345 127.22C275.891 127.22 277.449 125.624 277.943 123.458H281.325V124.598C280.679 127.296 277.943 130.184 273.345 130.184C268.139 130.184 264.491 126.27 264.491 120.722C264.491 115.174 268.139 111.26 273.345 111.26ZM292.793 111.26C297.999 111.26 301.761 115.174 301.761 120.722C301.761 126.27 297.999 130.184 292.793 130.184C287.587 130.184 283.825 126.27 283.825 120.722C283.825 115.174 287.587 111.26 292.793 111.26ZM292.793 114.224C289.563 114.224 287.359 116.846 287.359 120.722C287.359 124.598 289.563 127.22 292.793 127.22C296.023 127.22 298.227 124.598 298.227 120.722C298.227 116.846 296.023 114.224 292.793 114.224ZM321.329 111.944V129.5H318.099V126.308H317.719C316.883 128.474 314.755 130.184 311.829 130.184C307.991 130.184 305.217 127.22 305.217 122.926V111.944H308.637V122.28C308.637 125.168 310.157 126.916 312.741 126.916C315.705 126.916 317.909 124.598 317.909 120.418V111.944H321.329ZM326.267 129.5V111.944H329.497V115.136H329.877C330.713 112.97 332.841 111.26 335.767 111.26C339.605 111.26 342.379 114.224 342.379 118.518V129.5H338.959V119.164C338.959 116.276 337.439 114.528 334.855 114.528C331.891 114.528 329.687 116.846 329.687 121.026V129.5H326.267ZM353.435 126.612H356.741V129.5H352.865C349.787 129.5 348.267 128.246 348.267 125.206V114.832H344.923V111.944H348.267V105.864H351.687V111.944H356.475V114.832H351.687V125.016C351.687 126.232 352.219 126.612 353.435 126.612ZM366.08 111.26C370.222 111.26 372.578 113.312 373.186 116.276V117.302H370.108C369.804 115.44 368.588 114.148 366.08 114.148C363.99 114.148 362.698 115.06 362.698 116.39C362.698 117.53 363.61 118.252 364.902 118.594L369.006 119.696C371.894 120.456 373.642 122.242 373.642 124.864C373.642 128.246 370.754 130.184 366.574 130.184C362.28 130.184 359.506 128.17 358.708 124.75V123.724H361.824C362.356 126.194 364.104 127.296 366.574 127.296C368.854 127.296 370.26 126.384 370.26 124.902C370.26 123.61 369.196 122.926 367.866 122.546L363.686 121.406C361.216 120.722 359.354 119.05 359.354 116.428C359.354 113.274 362.166 111.26 366.08 111.26Z" fill="black"/>
<path d="M174.62 212.284H177.252C177.672 215.112 179.604 216.54 182.516 216.54C184.812 216.54 186.828 215.588 186.828 213.488C186.828 211.808 185.568 210.968 184.112 210.548L179.884 209.344C177.252 208.588 175.32 206.768 175.32 204.08C175.32 200.888 178.148 198.676 181.984 198.676C185.54 198.676 188.34 200.44 189.124 204.024V205.004H186.632C186.268 202.568 184.644 201.14 181.984 201.14C179.772 201.14 178.036 202.176 178.036 203.968C178.036 205.284 178.96 206.32 180.752 206.824L184.98 208.028C187.584 208.784 189.544 210.464 189.544 213.404C189.544 216.96 186.604 219.004 182.516 219.004C178.204 219.004 175.46 216.82 174.62 213.264V212.284ZM204.417 216.456H204.921V218.5H204.025C202.793 218.5 201.561 218.052 201.281 216.372H201.001C200.385 217.856 198.817 219.004 196.381 219.004C193.833 219.004 191.789 217.716 191.789 215.28C191.789 213.348 193.049 211.92 195.233 211.304L200.833 209.708C200.721 208.196 199.489 207.244 197.893 207.244C196.521 207.244 195.149 207.944 194.757 209.624H192.433V208.896C193.049 206.488 195.149 205.06 197.921 205.06C201.309 205.06 203.325 207.132 203.325 210.1V215.168C203.325 216.036 203.605 216.456 204.417 216.456ZM196.829 216.988C199.265 216.988 200.833 215.168 200.833 213.208V211.808L196.353 213.124C195.009 213.516 194.337 214.188 194.337 215.168C194.337 216.372 195.345 216.988 196.829 216.988ZM214.872 201.308H212.1C211.204 201.308 210.812 201.588 210.812 202.484V205.564H214.2V207.692H210.812V218.5H208.292V207.692H205.912V205.564H208.292V202.456C208.292 200.216 209.524 199.18 211.764 199.18H214.872V201.308ZM228.236 212.032V212.76H218.044C218.296 215.196 219.836 216.848 222.104 216.848C223.84 216.848 225.128 215.84 225.52 214.328H227.9V215.14C227.312 216.988 225.408 219.004 222.104 219.004C218.184 219.004 215.524 216.092 215.524 212.032C215.524 207.944 218.24 205.06 222.048 205.06C225.94 205.06 228.236 207.972 228.236 212.032ZM222.02 207.132C220.004 207.132 218.548 208.532 218.128 210.688H225.688C225.38 208.56 224.092 207.132 222.02 207.132ZM237.265 212.284H239.897C240.317 215.112 242.249 216.54 245.161 216.54C247.457 216.54 249.473 215.588 249.473 213.488C249.473 211.808 248.213 210.968 246.757 210.548L242.529 209.344C239.897 208.588 237.965 206.768 237.965 204.08C237.965 200.888 240.793 198.676 244.629 198.676C248.185 198.676 250.985 200.44 251.769 204.024V205.004H249.277C248.913 202.568 247.289 201.14 244.629 201.14C242.417 201.14 240.681 202.176 240.681 203.968C240.681 205.284 241.605 206.32 243.397 206.824L247.625 208.028C250.229 208.784 252.189 210.464 252.189 213.404C252.189 216.96 249.249 219.004 245.161 219.004C240.849 219.004 238.105 216.82 237.265 213.264V212.284ZM255.246 218.5V205.564H257.626V207.748H257.906C258.522 206.18 259.894 205.06 261.826 205.06C263.702 205.06 265.27 206.152 265.942 208.196H266.11C266.922 206.068 268.518 205.06 270.31 205.06C272.942 205.06 274.79 207.216 274.79 210.324V218.5H272.27V210.772C272.27 208.644 271.262 207.468 269.638 207.468C267.762 207.468 266.278 209.12 266.278 212.2V218.5H263.758V210.772C263.758 208.644 262.75 207.468 261.126 207.468C259.25 207.468 257.766 209.12 257.766 212.2V218.5H255.246ZM289.976 216.456H290.48V218.5H289.584C288.352 218.5 287.12 218.052 286.84 216.372H286.56C285.944 217.856 284.376 219.004 281.94 219.004C279.392 219.004 277.348 217.716 277.348 215.28C277.348 213.348 278.608 211.92 280.792 211.304L286.392 209.708C286.28 208.196 285.048 207.244 283.452 207.244C282.08 207.244 280.708 207.944 280.316 209.624H277.992V208.896C278.608 206.488 280.708 205.06 283.48 205.06C286.868 205.06 288.884 207.132 288.884 210.1V215.168C288.884 216.036 289.164 216.456 289.976 216.456ZM282.388 216.988C284.824 216.988 286.392 215.168 286.392 213.208V211.808L281.912 213.124C280.568 213.516 279.896 214.188 279.896 215.168C279.896 216.372 280.904 216.988 282.388 216.988ZM292.871 218.5V205.564H295.251V207.944H295.531C295.895 206.628 296.903 205.424 298.947 205.424H300.963V207.72H299.199C296.735 207.72 295.391 209.652 295.391 212.312V218.5H292.871ZM308.104 216.372H310.54V218.5H307.684C305.416 218.5 304.296 217.576 304.296 215.336V207.692H301.832V205.564H304.296V201.084H306.816V205.564H310.344V207.692H306.816V215.196C306.816 216.092 307.208 216.372 308.104 216.372ZM325.346 199.18H329.07L335.734 217.52V218.5H333.242L331.59 213.768H322.826L321.174 218.5H318.71V217.52L325.346 199.18ZM326.13 204.276L323.666 211.36H330.75L328.286 204.276C327.894 203.156 327.642 202.26 327.418 201.224H326.998C326.774 202.26 326.522 203.156 326.13 204.276ZM343.891 205.06C347.279 205.06 349.267 207.188 349.715 209.12V209.96H347.251C346.887 208.42 345.739 207.244 343.891 207.244C341.511 207.244 339.971 209.176 339.971 212.032C339.971 214.888 341.511 216.82 343.891 216.82C345.767 216.82 346.915 215.644 347.279 214.048H349.771V214.888C349.295 216.876 347.279 219.004 343.891 219.004C340.055 219.004 337.367 216.12 337.367 212.032C337.367 207.944 340.055 205.06 343.891 205.06ZM358.137 205.06C361.525 205.06 363.513 207.188 363.961 209.12V209.96H361.497C361.133 208.42 359.985 207.244 358.137 207.244C355.757 207.244 354.217 209.176 354.217 212.032C354.217 214.888 355.757 216.82 358.137 216.82C360.013 216.82 361.161 215.644 361.525 214.048H364.017V214.888C363.541 216.876 361.525 219.004 358.137 219.004C354.301 219.004 351.613 216.12 351.613 212.032C351.613 207.944 354.301 205.06 358.137 205.06ZM372.468 205.06C376.304 205.06 379.076 207.944 379.076 212.032C379.076 216.12 376.304 219.004 372.468 219.004C368.632 219.004 365.86 216.12 365.86 212.032C365.86 207.944 368.632 205.06 372.468 205.06ZM372.468 207.244C370.088 207.244 368.464 209.176 368.464 212.032C368.464 214.888 370.088 216.82 372.468 216.82C374.848 216.82 376.472 214.888 376.472 212.032C376.472 209.176 374.848 207.244 372.468 207.244ZM393.494 205.564V218.5H391.114V216.148H390.834C390.218 217.744 388.65 219.004 386.494 219.004C383.666 219.004 381.622 216.82 381.622 213.656V205.564H384.142V213.18C384.142 215.308 385.262 216.596 387.166 216.596C389.35 216.596 390.974 214.888 390.974 211.808V205.564H393.494ZM397.133 218.5V205.564H399.513V207.916H399.793C400.409 206.32 401.977 205.06 404.133 205.06C406.961 205.06 409.005 207.244 409.005 210.408V218.5H406.485V210.884C406.485 208.756 405.365 207.468 403.461 207.468C401.277 207.468 399.653 209.176 399.653 212.256V218.5H397.133ZM417.151 216.372H419.587V218.5H416.731C414.463 218.5 413.343 217.576 413.343 215.336V207.692H410.879V205.564H413.343V201.084H415.863V205.564H419.391V207.692H415.863V215.196C415.863 216.092 416.255 216.372 417.151 216.372Z" fill="black"/>
<rect x="133" y="163.5" width="328" height="88" rx="10" stroke="#121312" stroke-width="2"/>
<path d="M170.976 315.16V314.18H173.496L178.144 328.404C178.536 329.608 178.788 330.42 178.984 331.456H179.404C179.6 330.42 179.852 329.608 180.244 328.404L184.92 314.18H187.412V315.16L181.14 333.5H177.22L170.976 315.16ZM199.943 327.032V327.76H189.751C190.003 330.196 191.543 331.848 193.811 331.848C195.547 331.848 196.835 330.84 197.227 329.328H199.607V330.14C199.019 331.988 197.115 334.004 193.811 334.004C189.891 334.004 187.231 331.092 187.231 327.032C187.231 322.944 189.947 320.06 193.755 320.06C197.647 320.06 199.943 322.972 199.943 327.032ZM193.727 322.132C191.711 322.132 190.255 323.532 189.835 325.688H197.395C197.087 323.56 195.799 322.132 193.727 322.132ZM202.672 333.5V320.564H205.052V322.916H205.332C205.948 321.32 207.516 320.06 209.672 320.06C212.5 320.06 214.544 322.244 214.544 325.408V333.5H212.024V325.884C212.024 323.756 210.904 322.468 209 322.468C206.816 322.468 205.192 324.176 205.192 327.256V333.5H202.672ZM222.998 320.06C225.182 320.06 226.666 321.264 227.338 322.608H227.618V314.18H230.138V333.5H227.758V331.316H227.478C226.862 332.66 225.322 334.004 223.026 334.004C219.582 334.004 217.09 331.008 217.09 327.032C217.09 323.056 219.582 320.06 222.998 320.06ZM223.698 322.3C221.318 322.3 219.694 324.204 219.694 327.032C219.694 329.86 221.318 331.764 223.698 331.764C226.05 331.764 227.73 329.86 227.73 327.032C227.73 324.204 226.05 322.3 223.698 322.3ZM239.585 320.06C243.421 320.06 246.193 322.944 246.193 327.032C246.193 331.12 243.421 334.004 239.585 334.004C235.749 334.004 232.977 331.12 232.977 327.032C232.977 322.944 235.749 320.06 239.585 320.06ZM239.585 322.244C237.205 322.244 235.581 324.176 235.581 327.032C235.581 329.888 237.205 331.82 239.585 331.82C241.965 331.82 243.589 329.888 243.589 327.032C243.589 324.176 241.965 322.244 239.585 322.244ZM249.019 333.5V320.564H251.399V322.944H251.679C252.043 321.628 253.051 320.424 255.095 320.424H257.111V322.72H255.347C252.883 322.72 251.539 324.652 251.539 327.312V333.5H249.019ZM280.556 315.02L274.76 323.448L281.032 332.66V333.5H278.316L274.424 327.564C273.92 326.78 273.416 325.884 273.108 325.1H272.744C272.436 325.884 271.904 326.836 271.372 327.62L267.48 333.5H264.876V332.66L271.148 323.476L265.324 315.02V314.18H268.012L271.484 319.444C271.988 320.228 272.492 321.124 272.8 321.908H273.164C273.472 321.124 273.976 320.228 274.508 319.416L277.98 314.18H280.556V315.02ZM281.766 315.16V314.18H284.314L288.178 320.76C288.766 321.74 289.242 322.664 289.466 323.448H289.858C290.082 322.664 290.53 321.684 291.09 320.76L295.01 314.18H297.418V315.16L290.95 325.8V333.5H288.318V325.8L281.766 315.16ZM299.05 316.588V314.18H313.106V317.232L301.766 330.7V331.092H313.302V333.5H298.63V330.448L309.97 316.98V316.588H299.05ZM328.498 314.18H332.222L338.886 332.52V333.5H336.394L334.742 328.768H325.978L324.326 333.5H321.862V332.52L328.498 314.18ZM329.282 319.276L326.818 326.36H333.902L331.438 319.276C331.046 318.156 330.794 317.26 330.57 316.224H330.15C329.926 317.26 329.674 318.156 329.282 319.276ZM347.044 320.06C350.432 320.06 352.42 322.188 352.868 324.12V324.96H350.404C350.04 323.42 348.892 322.244 347.044 322.244C344.664 322.244 343.124 324.176 343.124 327.032C343.124 329.888 344.664 331.82 347.044 331.82C348.92 331.82 350.068 330.644 350.432 329.048H352.924V329.888C352.448 331.876 350.432 334.004 347.044 334.004C343.208 334.004 340.52 331.12 340.52 327.032C340.52 322.944 343.208 320.06 347.044 320.06ZM361.235 320.06C364.623 320.06 366.611 322.188 367.059 324.12V324.96H364.595C364.231 323.42 363.083 322.244 361.235 322.244C358.855 322.244 357.315 324.176 357.315 327.032C357.315 329.888 358.855 331.82 361.235 331.82C363.111 331.82 364.259 330.644 364.623 329.048H367.115V329.888C366.639 331.876 364.623 334.004 361.235 334.004C357.399 334.004 354.711 331.12 354.711 327.032C354.711 322.944 357.399 320.06 361.235 320.06ZM375.511 320.06C379.347 320.06 382.119 322.944 382.119 327.032C382.119 331.12 379.347 334.004 375.511 334.004C371.675 334.004 368.903 331.12 368.903 327.032C368.903 322.944 371.675 320.06 375.511 320.06ZM375.511 322.244C373.131 322.244 371.507 324.176 371.507 327.032C371.507 329.888 373.131 331.82 375.511 331.82C377.891 331.82 379.515 329.888 379.515 327.032C379.515 324.176 377.891 322.244 375.511 322.244ZM396.537 320.564V333.5H394.157V331.148H393.877C393.261 332.744 391.693 334.004 389.537 334.004C386.709 334.004 384.665 331.82 384.665 328.656V320.564H387.185V328.18C387.185 330.308 388.305 331.596 390.209 331.596C392.393 331.596 394.017 329.888 394.017 326.808V320.564H396.537ZM400.175 333.5V320.564H402.555V322.916H402.835C403.451 321.32 405.019 320.06 407.175 320.06C410.003 320.06 412.047 322.244 412.047 325.408V333.5H409.527V325.884C409.527 323.756 408.407 322.468 406.503 322.468C404.319 322.468 402.695 324.176 402.695 327.256V333.5H400.175ZM420.194 331.372H422.63V333.5H419.774C417.506 333.5 416.386 332.576 416.386 330.336V322.692H413.922V320.564H416.386V316.084H418.906V320.564H422.434V322.692H418.906V330.196C418.906 331.092 419.298 331.372 420.194 331.372Z" fill="black"/>
<rect x="133" y="278.5" width="328" height="88" rx="10" stroke="#121312" stroke-width="2"/>
<path d="M288.792 448.5V445.448H291.704V448.5H288.792ZM295.3 448.5V445.448H298.212V448.5H295.3ZM301.808 448.5V445.448H304.72V448.5H301.808Z" fill="black"/>
<rect x="133" y="393.5" width="328" height="88" rx="10" stroke="#121312" stroke-width="2"/>
<rect x="67.5" y="65" width="459" height="444" rx="11.5" stroke="#121312" stroke-width="3"/>
<path d="M889.464 337.5V311.28H896.418L901.624 327.81C902.08 329.292 902.384 330.698 902.65 332.218H903.22C903.486 330.698 903.828 329.292 904.284 327.81L909.528 311.28H916.406V337.5H912.834V314.054H912.226L905.348 335.486H900.484L893.644 314.054H893.036V337.5H889.464ZM937.885 334.726H938.569V337.5H937.353C935.681 337.5 934.009 336.892 933.629 334.612H933.249C932.413 336.626 930.285 338.184 926.979 338.184C923.521 338.184 920.747 336.436 920.747 333.13C920.747 330.508 922.457 328.57 925.421 327.734L933.021 325.568C932.869 323.516 931.197 322.224 929.031 322.224C927.169 322.224 925.307 323.174 924.775 325.454H921.621V324.466C922.457 321.198 925.307 319.26 929.069 319.26C933.667 319.26 936.403 322.072 936.403 326.1V332.978C936.403 334.156 936.783 334.726 937.885 334.726ZM927.587 335.448C930.893 335.448 933.021 332.978 933.021 330.318V328.418L926.941 330.204C925.117 330.736 924.205 331.648 924.205 332.978C924.205 334.612 925.573 335.448 927.587 335.448ZM941.814 337.5V319.944H945.044V323.136H945.424C946.26 320.97 948.388 319.26 951.314 319.26C955.152 319.26 957.926 322.224 957.926 326.518V337.5H954.506V327.164C954.506 324.276 952.986 322.528 950.402 322.528C947.438 322.528 945.234 324.846 945.234 329.026V337.5H941.814ZM978.52 334.726H979.204V337.5H977.988C976.316 337.5 974.644 336.892 974.264 334.612H973.884C973.048 336.626 970.92 338.184 967.614 338.184C964.156 338.184 961.382 336.436 961.382 333.13C961.382 330.508 963.092 328.57 966.056 327.734L973.656 325.568C973.504 323.516 971.832 322.224 969.666 322.224C967.804 322.224 965.942 323.174 965.41 325.454H962.256V324.466C963.092 321.198 965.942 319.26 969.704 319.26C974.302 319.26 977.038 322.072 977.038 326.1V332.978C977.038 334.156 977.418 334.726 978.52 334.726ZM968.222 335.448C971.528 335.448 973.656 332.978 973.656 330.318V328.418L967.576 330.204C965.752 330.736 964.84 331.648 964.84 332.978C964.84 334.612 966.208 335.448 968.222 335.448ZM989.403 319.26C992.177 319.26 994.419 320.894 995.331 322.908H995.711V319.944H998.941V337.462C998.941 343.086 995.369 346.582 990.315 346.582C986.059 346.582 983.095 344.15 982.031 340.768V339.78H985.261C985.907 342.022 987.769 343.618 990.315 343.618C993.431 343.618 995.521 341.262 995.521 337.614V334.726H995.141C994.229 336.55 992.215 338.184 989.327 338.184C984.729 338.184 981.347 334.118 981.347 328.722C981.347 323.326 984.729 319.26 989.403 319.26ZM990.277 322.3C987.085 322.3 984.881 324.884 984.881 328.722C984.881 332.56 987.085 335.144 990.277 335.144C993.431 335.144 995.673 332.56 995.673 328.722C995.673 324.884 993.431 322.3 990.277 322.3ZM1020.05 328.722V329.71H1006.22C1006.56 333.016 1008.65 335.258 1011.73 335.258C1014.08 335.258 1015.83 333.89 1016.36 331.838H1019.59V332.94C1018.79 335.448 1016.21 338.184 1011.73 338.184C1006.41 338.184 1002.8 334.232 1002.8 328.722C1002.8 323.174 1006.48 319.26 1011.65 319.26C1016.93 319.26 1020.05 323.212 1020.05 328.722ZM1011.61 322.072C1008.88 322.072 1006.9 323.972 1006.33 326.898H1016.59C1016.17 324.01 1014.42 322.072 1011.61 322.072ZM1023.75 337.5V319.944H1026.98V323.174H1027.36C1027.86 321.388 1029.22 319.754 1032 319.754H1034.73V322.87H1032.34C1029 322.87 1027.17 325.492 1027.17 329.102V337.5H1023.75Z" fill="black"/>
<rect x="797.5" y="273" width="327" height="99" rx="9.5" stroke="#121312" stroke-width="3"/>
<path d="M881.464 635.5V609.28H892.75C897.994 609.28 901.034 612.472 901.034 616.538C901.034 619.35 899.59 621.478 896.968 622.504V623.074C899.742 623.796 900.35 625.886 900.35 628.394V635.5H896.778V628.394C896.778 625.62 895.486 624.48 892.94 624.48H885.036V635.5H881.464ZM892.332 612.548H885.036V621.212H892.332C895.676 621.212 897.386 619.426 897.386 616.88C897.386 614.334 895.676 612.548 892.332 612.548ZM921.686 626.722V627.71H907.854C908.196 631.016 910.286 633.258 913.364 633.258C915.72 633.258 917.468 631.89 918 629.838H921.23V630.94C920.432 633.448 917.848 636.184 913.364 636.184C908.044 636.184 904.434 632.232 904.434 626.722C904.434 621.174 908.12 617.26 913.288 617.26C918.57 617.26 921.686 621.212 921.686 626.722ZM913.25 620.072C910.514 620.072 908.538 621.972 907.968 624.898H918.228C917.81 622.01 916.062 620.072 913.25 620.072ZM932.344 617.26C935.118 617.26 937.36 618.894 938.272 620.908H938.652V617.944H941.882V635.462C941.882 641.086 938.31 644.582 933.256 644.582C929 644.582 926.036 642.15 924.972 638.768V637.78H928.202C928.848 640.022 930.71 641.618 933.256 641.618C936.372 641.618 938.462 639.262 938.462 635.614V632.726H938.082C937.17 634.55 935.156 636.184 932.268 636.184C927.67 636.184 924.288 632.118 924.288 626.722C924.288 621.326 927.67 617.26 932.344 617.26ZM933.218 620.3C930.026 620.3 927.822 622.884 927.822 626.722C927.822 630.56 930.026 633.144 933.218 633.144C936.372 633.144 938.614 630.56 938.614 626.722C938.614 622.884 936.372 620.3 933.218 620.3ZM946.839 613.308V609.28H950.563V613.308H946.839ZM946.991 635.5V617.944H950.411V635.5H946.991ZM961.604 617.26C965.746 617.26 968.102 619.312 968.71 622.276V623.302H965.632C965.328 621.44 964.112 620.148 961.604 620.148C959.514 620.148 958.222 621.06 958.222 622.39C958.222 623.53 959.134 624.252 960.426 624.594L964.53 625.696C967.418 626.456 969.166 628.242 969.166 630.864C969.166 634.246 966.278 636.184 962.098 636.184C957.804 636.184 955.03 634.17 954.232 630.75V629.724H957.348C957.88 632.194 959.628 633.296 962.098 633.296C964.378 633.296 965.784 632.384 965.784 630.902C965.784 629.61 964.72 628.926 963.39 628.546L959.21 627.406C956.74 626.722 954.878 625.05 954.878 622.428C954.878 619.274 957.69 617.26 961.604 617.26ZM978.98 632.612H982.286V635.5H978.41C975.332 635.5 973.812 634.246 973.812 631.206V620.832H970.468V617.944H973.812V611.864H977.232V617.944H982.02V620.832H977.232V631.016C977.232 632.232 977.764 632.612 978.98 632.612ZM985.507 635.5V617.944H988.737V621.174H989.117C989.611 619.388 990.979 617.754 993.753 617.754H996.489V620.87H994.095C990.751 620.87 988.927 623.492 988.927 627.102V635.5H985.507ZM999.238 613.308V609.28H1002.96V613.308H999.238ZM999.39 635.5V617.944H1002.81V635.5H999.39ZM1024.03 626.722V627.71H1010.2C1010.54 631.016 1012.63 633.258 1015.71 633.258C1018.07 633.258 1019.82 631.89 1020.35 629.838H1023.58V630.94C1022.78 633.448 1020.2 636.184 1015.71 636.184C1010.39 636.184 1006.78 632.232 1006.78 626.722C1006.78 621.174 1010.47 617.26 1015.64 617.26C1020.92 617.26 1024.03 621.212 1024.03 626.722ZM1015.6 620.072C1012.86 620.072 1010.89 621.972 1010.32 624.898H1020.58C1020.16 622.01 1018.41 620.072 1015.6 620.072ZM1033.86 617.26C1038 617.26 1040.35 619.312 1040.96 622.276V623.302H1037.88C1037.58 621.44 1036.36 620.148 1033.86 620.148C1031.77 620.148 1030.47 621.06 1030.47 622.39C1030.47 623.53 1031.39 624.252 1032.68 624.594L1036.78 625.696C1039.67 626.456 1041.42 628.242 1041.42 630.864C1041.42 634.246 1038.53 636.184 1034.35 636.184C1030.06 636.184 1027.28 634.17 1026.48 630.75V629.724H1029.6C1030.13 632.194 1031.88 633.296 1034.35 633.296C1036.63 633.296 1038.04 632.384 1038.04 630.902C1038.04 629.61 1036.97 628.926 1035.64 628.546L1031.46 627.406C1028.99 626.722 1027.13 625.05 1027.13 622.428C1027.13 619.274 1029.94 617.26 1033.86 617.26Z" fill="black"/>
<path d="M817.684 724.5V705.18H824.068C830.284 705.18 833.364 709.128 833.364 714.84C833.364 720.552 830.284 724.5 824.068 724.5H817.684ZM820.316 707.588V722.092H824.152C828.772 722.092 830.648 718.928 830.648 714.84C830.648 710.752 828.772 707.588 824.152 707.588H820.316ZM841.482 705.18H845.206L851.87 723.52V724.5H849.378L847.726 719.768H838.962L837.31 724.5H834.846V723.52L841.482 705.18ZM842.266 710.276L839.802 717.36H846.886L844.422 710.276C844.03 709.156 843.778 708.26 843.554 707.224H843.134C842.91 708.26 842.658 709.156 842.266 710.276ZM862.341 704.676C867.829 704.676 871.721 708.96 871.721 714.84C871.721 720.72 867.829 725.004 862.341 725.004C856.853 725.004 852.961 720.72 852.961 714.84C852.961 708.96 856.853 704.676 862.341 704.676ZM862.341 707.14C858.449 707.14 855.677 710.388 855.677 714.84C855.677 719.292 858.449 722.54 862.341 722.54C866.233 722.54 869.005 719.292 869.005 714.84C869.005 710.388 866.233 707.14 862.341 707.14ZM874.295 718.956V716.66H881.407V718.956H874.295ZM889.737 711.06C891.781 711.06 893.433 712.264 894.105 713.748H894.385V711.564H896.765V724.472C896.765 728.616 894.133 731.192 890.409 731.192C887.273 731.192 885.089 729.4 884.305 726.908V726.18H886.685C887.161 727.832 888.533 729.008 890.409 729.008C892.705 729.008 894.245 727.272 894.245 724.584V722.456H893.965C893.293 723.8 891.809 725.004 889.681 725.004C886.293 725.004 883.801 722.008 883.801 718.032C883.801 714.056 886.293 711.06 889.737 711.06ZM890.381 713.3C888.029 713.3 886.405 715.204 886.405 718.032C886.405 720.86 888.029 722.764 890.381 722.764C892.705 722.764 894.357 720.86 894.357 718.032C894.357 715.204 892.705 713.3 890.381 713.3ZM906.214 711.06C910.05 711.06 912.822 713.944 912.822 718.032C912.822 722.12 910.05 725.004 906.214 725.004C902.378 725.004 899.606 722.12 899.606 718.032C899.606 713.944 902.378 711.06 906.214 711.06ZM906.214 713.244C903.834 713.244 902.21 715.176 902.21 718.032C902.21 720.888 903.834 722.82 906.214 722.82C908.594 722.82 910.218 720.888 910.218 718.032C910.218 715.176 908.594 713.244 906.214 713.244ZM914.139 712.404V711.564H916.631L919.571 719.992C919.935 721 920.187 721.868 920.355 722.736H920.691C920.859 721.868 921.139 721 921.475 719.992L924.387 711.564H926.851V712.404L922.231 724.5H918.787L914.139 712.404ZM940.892 718.032V718.76H930.7C930.952 721.196 932.492 722.848 934.76 722.848C936.496 722.848 937.784 721.84 938.176 720.328H940.556V721.14C939.968 722.988 938.064 725.004 934.76 725.004C930.84 725.004 928.18 722.092 928.18 718.032C928.18 713.944 930.896 711.06 934.704 711.06C938.596 711.06 940.892 713.972 940.892 718.032ZM934.676 713.132C932.66 713.132 931.204 714.532 930.784 716.688H938.344C938.036 714.56 936.748 713.132 934.676 713.132ZM943.621 724.5V711.564H946.001V713.944H946.281C946.645 712.628 947.653 711.424 949.697 711.424H951.713V713.72H949.949C947.485 713.72 946.141 715.652 946.141 718.312V724.5H943.621ZM953.738 724.5V711.564H956.118V713.916H956.398C957.014 712.32 958.582 711.06 960.738 711.06C963.566 711.06 965.61 713.244 965.61 716.408V724.5H963.09V716.884C963.09 714.756 961.97 713.468 960.066 713.468C957.882 713.468 956.258 715.176 956.258 718.256V724.5H953.738ZM980.868 718.032V718.76H970.676C970.928 721.196 972.468 722.848 974.736 722.848C976.472 722.848 977.76 721.84 978.152 720.328H980.532V721.14C979.944 722.988 978.04 725.004 974.736 725.004C970.816 725.004 968.156 722.092 968.156 718.032C968.156 713.944 970.872 711.06 974.68 711.06C978.572 711.06 980.868 713.972 980.868 718.032ZM974.652 713.132C972.636 713.132 971.18 714.532 970.76 716.688H978.32C978.012 714.56 976.724 713.132 974.652 713.132ZM988.693 711.06C990.877 711.06 992.361 712.264 993.033 713.608H993.313V705.18H995.833V724.5H993.453V722.316H993.173C992.557 723.66 991.017 725.004 988.721 725.004C985.277 725.004 982.785 722.008 982.785 718.032C982.785 714.056 985.277 711.06 988.693 711.06ZM989.393 713.3C987.013 713.3 985.389 715.204 985.389 718.032C985.389 720.86 987.013 722.764 989.393 722.764C991.745 722.764 993.425 720.86 993.425 718.032C993.425 715.204 991.745 713.3 989.393 713.3ZM1006.85 724.5V705.18H1015.16C1019.03 705.18 1021.27 707.532 1021.27 710.528C1021.27 712.6 1020.2 714.168 1018.27 714.924V715.344C1020.32 715.876 1020.76 717.416 1020.76 719.264V724.5H1018.13V719.264C1018.13 717.22 1017.18 716.38 1015.3 716.38H1009.48V724.5H1006.85ZM1014.86 707.588H1009.48V713.972H1014.86C1017.32 713.972 1018.58 712.656 1018.58 710.78C1018.58 708.904 1017.32 707.588 1014.86 707.588ZM1036.49 718.032V718.76H1026.29C1026.55 721.196 1028.09 722.848 1030.35 722.848C1032.09 722.848 1033.38 721.84 1033.77 720.328H1036.15V721.14C1035.56 722.988 1033.66 725.004 1030.35 725.004C1026.43 725.004 1023.77 722.092 1023.77 718.032C1023.77 713.944 1026.49 711.06 1030.3 711.06C1034.19 711.06 1036.49 713.972 1036.49 718.032ZM1030.27 713.132C1028.25 713.132 1026.8 714.532 1026.38 716.688H1033.94C1033.63 714.56 1032.34 713.132 1030.27 713.132ZM1044.34 711.06C1046.38 711.06 1048.03 712.264 1048.71 713.748H1048.99V711.564H1051.37V724.472C1051.37 728.616 1048.73 731.192 1045.01 731.192C1041.87 731.192 1039.69 729.4 1038.91 726.908V726.18H1041.29C1041.76 727.832 1043.13 729.008 1045.01 729.008C1047.31 729.008 1048.85 727.272 1048.85 724.584V722.456H1048.57C1047.89 723.8 1046.41 725.004 1044.28 725.004C1040.89 725.004 1038.4 722.008 1038.4 718.032C1038.4 714.056 1040.89 711.06 1044.34 711.06ZM1044.98 713.3C1042.63 713.3 1041.01 715.204 1041.01 718.032C1041.01 720.86 1042.63 722.764 1044.98 722.764C1047.31 722.764 1048.96 720.86 1048.96 718.032C1048.96 715.204 1047.31 713.3 1044.98 713.3ZM1055.02 708.148V705.18H1057.76V708.148H1055.02ZM1055.13 724.5V711.564H1057.65V724.5H1055.13ZM1065.9 711.06C1068.95 711.06 1070.69 712.572 1071.13 714.756V715.512H1068.87C1068.64 714.14 1067.75 713.188 1065.9 713.188C1064.36 713.188 1063.41 713.86 1063.41 714.84C1063.41 715.68 1064.08 716.212 1065.03 716.464L1068.05 717.276C1070.18 717.836 1071.47 719.152 1071.47 721.084C1071.47 723.576 1069.34 725.004 1066.26 725.004C1063.1 725.004 1061.05 723.52 1060.47 721V720.244H1062.76C1063.15 722.064 1064.44 722.876 1066.26 722.876C1067.94 722.876 1068.98 722.204 1068.98 721.112C1068.98 720.16 1068.19 719.656 1067.21 719.376L1064.13 718.536C1062.31 718.032 1060.94 716.8 1060.94 714.868C1060.94 712.544 1063.01 711.06 1065.9 711.06ZM1078.7 722.372H1081.14V724.5H1078.28C1076.01 724.5 1074.89 723.576 1074.89 721.336V713.692H1072.43V711.564H1074.89V707.084H1077.41V711.564H1080.94V713.692H1077.41V721.196C1077.41 722.092 1077.81 722.372 1078.7 722.372ZM1083.51 724.5V711.564H1085.89V713.944H1086.17C1086.54 712.628 1087.54 711.424 1089.59 711.424H1091.6V713.72H1089.84C1087.38 713.72 1086.03 715.652 1086.03 718.312V724.5H1083.51ZM1099.78 719.292L1102.67 711.564H1105.13V712.404L1097.74 730.688H1095.39V729.848L1097.54 724.752L1092.47 712.404V711.564H1094.99L1097.88 719.32C1098.24 720.3 1098.52 721.168 1098.66 722.036H1099C1099.17 721.168 1099.42 720.244 1099.78 719.292Z" fill="black"/>
<rect x="797" y="669.5" width="328" height="88" rx="10" stroke="#121312" stroke-width="2"/>
<path d="M835.476 821.16V820.18H837.996L842.644 834.404C843.036 835.608 843.288 836.42 843.484 837.456H843.904C844.1 836.42 844.352 835.608 844.744 834.404L849.42 820.18H851.912V821.16L845.64 839.5H841.72L835.476 821.16ZM864.443 833.032V833.76H854.251C854.503 836.196 856.043 837.848 858.311 837.848C860.047 837.848 861.335 836.84 861.727 835.328H864.107V836.14C863.519 837.988 861.615 840.004 858.311 840.004C854.391 840.004 851.731 837.092 851.731 833.032C851.731 828.944 854.447 826.06 858.255 826.06C862.147 826.06 864.443 828.972 864.443 833.032ZM858.227 828.132C856.211 828.132 854.755 829.532 854.335 831.688H861.895C861.587 829.56 860.299 828.132 858.227 828.132ZM867.172 839.5V826.564H869.552V828.916H869.832C870.448 827.32 872.016 826.06 874.172 826.06C877 826.06 879.044 828.244 879.044 831.408V839.5H876.524V831.884C876.524 829.756 875.404 828.468 873.5 828.468C871.316 828.468 869.692 830.176 869.692 833.256V839.5H867.172ZM887.498 826.06C889.682 826.06 891.166 827.264 891.838 828.608H892.118V820.18H894.638V839.5H892.258V837.316H891.978C891.362 838.66 889.822 840.004 887.526 840.004C884.082 840.004 881.59 837.008 881.59 833.032C881.59 829.056 884.082 826.06 887.498 826.06ZM888.198 828.3C885.818 828.3 884.194 830.204 884.194 833.032C884.194 835.86 885.818 837.764 888.198 837.764C890.55 837.764 892.23 835.86 892.23 833.032C892.23 830.204 890.55 828.3 888.198 828.3ZM904.085 826.06C907.921 826.06 910.693 828.944 910.693 833.032C910.693 837.12 907.921 840.004 904.085 840.004C900.249 840.004 897.477 837.12 897.477 833.032C897.477 828.944 900.249 826.06 904.085 826.06ZM904.085 828.244C901.705 828.244 900.081 830.176 900.081 833.032C900.081 835.888 901.705 837.82 904.085 837.82C906.465 837.82 908.089 835.888 908.089 833.032C908.089 830.176 906.465 828.244 904.085 828.244ZM913.519 839.5V826.564H915.899V828.944H916.179C916.543 827.628 917.551 826.424 919.595 826.424H921.611V828.72H919.847C917.383 828.72 916.039 830.652 916.039 833.312V839.5H913.519ZM945.056 821.02L939.26 829.448L945.532 838.66V839.5H942.816L938.924 833.564C938.42 832.78 937.916 831.884 937.608 831.1H937.244C936.936 831.884 936.404 832.836 935.872 833.62L931.98 839.5H929.376V838.66L935.648 829.476L929.824 821.02V820.18H932.512L935.984 825.444C936.488 826.228 936.992 827.124 937.3 827.908H937.664C937.972 827.124 938.476 826.228 939.008 825.416L942.48 820.18H945.056V821.02ZM946.266 821.16V820.18H948.814L952.678 826.76C953.266 827.74 953.742 828.664 953.966 829.448H954.358C954.582 828.664 955.03 827.684 955.59 826.76L959.51 820.18H961.918V821.16L955.45 831.8V839.5H952.818V831.8L946.266 821.16ZM963.55 822.588V820.18H977.606V823.232L966.266 836.7V837.092H977.802V839.5H963.13V836.448L974.47 822.98V822.588H963.55ZM987.93 839.5V820.18H996.246C1000.11 820.18 1002.35 822.532 1002.35 825.528C1002.35 827.6 1001.29 829.168 999.354 829.924V830.344C1001.4 830.876 1001.85 832.416 1001.85 834.264V839.5H999.214V834.264C999.214 832.22 998.262 831.38 996.386 831.38H990.562V839.5H987.93ZM995.938 822.588H990.562V828.972H995.938C998.402 828.972 999.662 827.656 999.662 825.78C999.662 823.904 998.402 822.588 995.938 822.588ZM1017.57 833.032V833.76H1007.38C1007.63 836.196 1009.17 837.848 1011.44 837.848C1013.17 837.848 1014.46 836.84 1014.85 835.328H1017.23V836.14C1016.64 837.988 1014.74 840.004 1011.44 840.004C1007.52 840.004 1004.86 837.092 1004.86 833.032C1004.86 828.944 1007.57 826.06 1011.38 826.06C1015.27 826.06 1017.57 828.972 1017.57 833.032ZM1011.35 828.132C1009.34 828.132 1007.88 829.532 1007.46 831.688H1015.02C1014.71 829.56 1013.42 828.132 1011.35 828.132ZM1025.42 826.06C1027.46 826.06 1029.12 827.264 1029.79 828.748H1030.07V826.564H1032.45V839.472C1032.45 843.616 1029.82 846.192 1026.09 846.192C1022.96 846.192 1020.77 844.4 1019.99 841.908V841.18H1022.37C1022.84 842.832 1024.22 844.008 1026.09 844.008C1028.39 844.008 1029.93 842.272 1029.93 839.584V837.456H1029.65C1028.98 838.8 1027.49 840.004 1025.36 840.004C1021.98 840.004 1019.48 837.008 1019.48 833.032C1019.48 829.056 1021.98 826.06 1025.42 826.06ZM1026.06 828.3C1023.71 828.3 1022.09 830.204 1022.09 833.032C1022.09 835.86 1023.71 837.764 1026.06 837.764C1028.39 837.764 1030.04 835.86 1030.04 833.032C1030.04 830.204 1028.39 828.3 1026.06 828.3ZM1036.1 823.148V820.18H1038.85V823.148H1036.1ZM1036.21 839.5V826.564H1038.73V839.5H1036.21ZM1046.98 826.06C1050.03 826.06 1051.77 827.572 1052.22 829.756V830.512H1049.95C1049.72 829.14 1048.83 828.188 1046.98 828.188C1045.44 828.188 1044.49 828.86 1044.49 829.84C1044.49 830.68 1045.16 831.212 1046.11 831.464L1049.14 832.276C1051.26 832.836 1052.55 834.152 1052.55 836.084C1052.55 838.576 1050.42 840.004 1047.34 840.004C1044.18 840.004 1042.14 838.52 1041.55 836V835.244H1043.84C1044.24 837.064 1045.52 837.876 1047.34 837.876C1049.02 837.876 1050.06 837.204 1050.06 836.112C1050.06 835.16 1049.28 834.656 1048.3 834.376L1045.22 833.536C1043.4 833.032 1042.02 831.8 1042.02 829.868C1042.02 827.544 1044.1 826.06 1046.98 826.06ZM1059.78 837.372H1062.22V839.5H1059.36C1057.1 839.5 1055.98 838.576 1055.98 836.336V828.692H1053.51V826.564H1055.98V822.084H1058.5V826.564H1062.02V828.692H1058.5V836.196C1058.5 837.092 1058.89 837.372 1059.78 837.372ZM1064.59 839.5V826.564H1066.97V828.944H1067.25C1067.62 827.628 1068.63 826.424 1070.67 826.424H1072.69V828.72H1070.92C1068.46 828.72 1067.11 830.652 1067.11 833.312V839.5H1064.59ZM1080.86 834.292L1083.75 826.564H1086.21V827.404L1078.82 845.688H1076.47V844.848L1078.62 839.752L1073.56 827.404V826.564H1076.08L1078.96 834.32C1079.32 835.3 1079.6 836.168 1079.74 837.036H1080.08C1080.25 836.168 1080.5 835.244 1080.86 834.292Z" fill="black"/>
<rect x="797" y="784.5" width="328" height="88" rx="10" stroke="#121312" stroke-width="2"/>
<path d="M952.792 954.5V951.448H955.704V954.5H952.792ZM959.3 954.5V951.448H962.212V954.5H959.3ZM965.808 954.5V951.448H968.72V954.5H965.808Z" fill="black"/>
<rect x="797" y="899.5" width="328" height="88" rx="10" stroke="#121312" stroke-width="2"/>
<rect x="731.5" y="571" width="459" height="444" rx="11.5" stroke="#121312" stroke-width="3"/>
<path d="M1554.96 129.5V103.28H1561.92L1567.12 119.81C1567.58 121.292 1567.88 122.698 1568.15 124.218H1568.72C1568.99 122.698 1569.33 121.292 1569.78 119.81L1575.03 103.28H1581.91V129.5H1578.33V106.054H1577.73L1570.85 127.486H1565.98L1559.14 106.054H1558.54V129.5H1554.96ZM1595.21 111.26C1600.42 111.26 1604.18 115.174 1604.18 120.722C1604.18 126.27 1600.42 130.184 1595.21 130.184C1590.01 130.184 1586.25 126.27 1586.25 120.722C1586.25 115.174 1590.01 111.26 1595.21 111.26ZM1595.21 114.224C1591.98 114.224 1589.78 116.846 1589.78 120.722C1589.78 124.598 1591.98 127.22 1595.21 127.22C1598.44 127.22 1600.65 124.598 1600.65 120.722C1600.65 116.846 1598.44 114.224 1595.21 114.224ZM1615.12 111.26C1618.08 111.26 1620.1 112.894 1621.01 114.718H1621.39V103.28H1624.81V129.5H1621.58V126.536H1621.2C1620.36 128.36 1618.27 130.184 1615.16 130.184C1610.48 130.184 1607.1 126.118 1607.1 120.722C1607.1 115.326 1610.48 111.26 1615.12 111.26ZM1616.07 114.3C1612.84 114.3 1610.64 116.884 1610.64 120.722C1610.64 124.56 1612.84 127.144 1616.07 127.144C1619.26 127.144 1621.54 124.56 1621.54 120.722C1621.54 116.884 1619.26 114.3 1616.07 114.3ZM1645.5 111.944V129.5H1642.27V126.308H1641.89C1641.05 128.474 1638.92 130.184 1636 130.184C1632.16 130.184 1629.38 127.22 1629.38 122.926V111.944H1632.8V122.28C1632.8 125.168 1634.32 126.916 1636.91 126.916C1639.87 126.916 1642.08 124.598 1642.08 120.418V111.944H1645.5ZM1650.43 129.5V103.28H1653.85V129.5H1650.43ZM1674.93 120.722V121.71H1661.1C1661.44 125.016 1663.53 127.258 1666.61 127.258C1668.97 127.258 1670.72 125.89 1671.25 123.838H1674.48V124.94C1673.68 127.448 1671.1 130.184 1666.61 130.184C1661.29 130.184 1657.68 126.232 1657.68 120.722C1657.68 115.174 1661.37 111.26 1666.54 111.26C1671.82 111.26 1674.93 115.212 1674.93 120.722ZM1666.5 114.072C1663.76 114.072 1661.79 115.972 1661.22 118.898H1671.48C1671.06 116.01 1669.31 114.072 1666.5 114.072ZM1684.76 111.26C1688.9 111.26 1691.25 113.312 1691.86 116.276V117.302H1688.78C1688.48 115.44 1687.26 114.148 1684.76 114.148C1682.67 114.148 1681.37 115.06 1681.37 116.39C1681.37 117.53 1682.29 118.252 1683.58 118.594L1687.68 119.696C1690.57 120.456 1692.32 122.242 1692.32 124.864C1692.32 128.246 1689.43 130.184 1685.25 130.184C1680.96 130.184 1678.18 128.17 1677.38 124.75V123.724H1680.5C1681.03 126.194 1682.78 127.296 1685.25 127.296C1687.53 127.296 1688.94 126.384 1688.94 124.902C1688.94 123.61 1687.87 122.926 1686.54 122.546L1682.36 121.406C1679.89 120.722 1678.03 119.05 1678.03 116.428C1678.03 113.274 1680.84 111.26 1684.76 111.26Z" fill="black"/>
<path d="M1588.05 199.18C1592.33 199.18 1594.88 201.588 1594.88 205.2C1594.88 208.812 1592.33 211.22 1588.05 211.22H1583.32V218.5H1580.68V199.18H1588.05ZM1583.32 208.812H1587.91C1590.68 208.812 1592.19 207.356 1592.19 205.2C1592.19 203.044 1590.68 201.588 1587.91 201.588H1583.32V208.812ZM1597.49 218.5V199.18H1600.01V218.5H1597.49ZM1615.24 205.564V218.5H1612.86V216.148H1612.58C1611.96 217.744 1610.39 219.004 1608.24 219.004C1605.41 219.004 1603.36 216.82 1603.36 213.656V205.564H1605.88V213.18C1605.88 215.308 1607 216.596 1608.91 216.596C1611.09 216.596 1612.72 214.888 1612.72 211.808V205.564H1615.24ZM1624 205.06C1626.04 205.06 1627.69 206.264 1628.37 207.748H1628.65V205.564H1631.03V218.472C1631.03 222.616 1628.39 225.192 1624.67 225.192C1621.53 225.192 1619.35 223.4 1618.57 220.908V220.18H1620.95C1621.42 221.832 1622.79 223.008 1624.67 223.008C1626.97 223.008 1628.51 221.272 1628.51 218.584V216.456H1628.23C1627.55 217.8 1626.07 219.004 1623.94 219.004C1620.55 219.004 1618.06 216.008 1618.06 212.032C1618.06 208.056 1620.55 205.06 1624 205.06ZM1624.64 207.3C1622.29 207.3 1620.67 209.204 1620.67 212.032C1620.67 214.86 1622.29 216.764 1624.64 216.764C1626.97 216.764 1628.62 214.86 1628.62 212.032C1628.62 209.204 1626.97 207.3 1624.64 207.3ZM1634.68 202.148V199.18H1637.42V202.148H1634.68ZM1634.79 218.5V205.564H1637.31V218.5H1634.79ZM1641.05 218.5V205.564H1643.43V207.916H1643.71C1644.33 206.32 1645.89 205.06 1648.05 205.06C1650.88 205.06 1652.92 207.244 1652.92 210.408V218.5H1650.4V210.884C1650.4 208.756 1649.28 207.468 1647.38 207.468C1645.19 207.468 1643.57 209.176 1643.57 212.256V218.5H1641.05ZM1660.79 205.06C1663.84 205.06 1665.58 206.572 1666.02 208.756V209.512H1663.76C1663.53 208.14 1662.64 207.188 1660.79 207.188C1659.25 207.188 1658.3 207.86 1658.3 208.84C1658.3 209.68 1658.97 210.212 1659.92 210.464L1662.94 211.276C1665.07 211.836 1666.36 213.152 1666.36 215.084C1666.36 217.576 1664.23 219.004 1661.15 219.004C1657.99 219.004 1655.94 217.52 1655.36 215V214.244H1657.65C1658.04 216.064 1659.33 216.876 1661.15 216.876C1662.83 216.876 1663.87 216.204 1663.87 215.112C1663.87 214.16 1663.08 213.656 1662.1 213.376L1659.02 212.536C1657.2 212.032 1655.83 210.8 1655.83 208.868C1655.83 206.544 1657.9 205.06 1660.79 205.06Z" fill="black"/>
<rect x="1459" y="163.5" width="328" height="88" rx="10" stroke="#121312" stroke-width="2"/>
<path d="M1586.68 333.5V314.18H1589.32V322.216H1599V314.18H1601.64V333.5H1599V324.624H1589.32V333.5H1586.68ZM1611.45 320.06C1615.28 320.06 1618.06 322.944 1618.06 327.032C1618.06 331.12 1615.28 334.004 1611.45 334.004C1607.61 334.004 1604.84 331.12 1604.84 327.032C1604.84 322.944 1607.61 320.06 1611.45 320.06ZM1611.45 322.244C1609.07 322.244 1607.44 324.176 1607.44 327.032C1607.44 329.888 1609.07 331.82 1611.45 331.82C1613.83 331.82 1615.45 329.888 1615.45 327.032C1615.45 324.176 1613.83 322.244 1611.45 322.244ZM1626.82 320.06C1630.65 320.06 1633.42 322.944 1633.42 327.032C1633.42 331.12 1630.65 334.004 1626.82 334.004C1622.98 334.004 1620.21 331.12 1620.21 327.032C1620.21 322.944 1622.98 320.06 1626.82 320.06ZM1626.82 322.244C1624.44 322.244 1622.81 324.176 1622.81 327.032C1622.81 329.888 1624.44 331.82 1626.82 331.82C1629.2 331.82 1630.82 329.888 1630.82 327.032C1630.82 324.176 1629.2 322.244 1626.82 322.244ZM1647.84 321.348L1643.19 325.744L1648.18 332.716V333.5H1645.69L1641.49 327.368L1638.77 329.944V333.5H1636.25V314.18H1638.77V326.668H1639.02L1645.38 320.564H1647.84V321.348ZM1654.68 320.06C1657.73 320.06 1659.46 321.572 1659.91 323.756V324.512H1657.64C1657.42 323.14 1656.52 322.188 1654.68 322.188C1653.14 322.188 1652.18 322.86 1652.18 323.84C1652.18 324.68 1652.86 325.212 1653.81 325.464L1656.83 326.276C1658.96 326.836 1660.25 328.152 1660.25 330.084C1660.25 332.576 1658.12 334.004 1655.04 334.004C1651.88 334.004 1649.83 332.52 1649.24 330V329.244H1651.54C1651.93 331.064 1653.22 331.876 1655.04 331.876C1656.72 331.876 1657.76 331.204 1657.76 330.112C1657.76 329.16 1656.97 328.656 1655.99 328.376L1652.91 327.536C1651.09 327.032 1649.72 325.8 1649.72 323.868C1649.72 321.544 1651.79 320.06 1654.68 320.06Z" fill="black"/>
<rect x="1459" y="278.5" width="328" height="88" rx="10" stroke="#121312" stroke-width="2"/>
<path d="M1514.18 448.5V429.18H1526.78V431.588H1516.82V437.832H1525.58V440.24H1516.82V448.5H1514.18ZM1540.56 435.564V448.5H1538.18V446.148H1537.9C1537.28 447.744 1535.72 449.004 1533.56 449.004C1530.73 449.004 1528.69 446.82 1528.69 443.656V435.564H1531.21V443.18C1531.21 445.308 1532.33 446.596 1534.23 446.596C1536.42 446.596 1538.04 444.888 1538.04 441.808V435.564H1540.56ZM1544.2 448.5V435.564H1546.58V437.916H1546.86C1547.47 436.32 1549.04 435.06 1551.2 435.06C1554.03 435.06 1556.07 437.244 1556.07 440.408V448.5H1553.55V440.884C1553.55 438.756 1552.43 437.468 1550.53 437.468C1548.34 437.468 1546.72 439.176 1546.72 442.256V448.5H1544.2ZM1565.14 435.06C1568.53 435.06 1570.52 437.188 1570.97 439.12V439.96H1568.5C1568.14 438.42 1566.99 437.244 1565.14 437.244C1562.76 437.244 1561.22 439.176 1561.22 442.032C1561.22 444.888 1562.76 446.82 1565.14 446.82C1567.02 446.82 1568.17 445.644 1568.53 444.048H1571.02V444.888C1570.55 446.876 1568.53 449.004 1565.14 449.004C1561.31 449.004 1558.62 446.12 1558.62 442.032C1558.62 437.944 1561.31 435.06 1565.14 435.06ZM1578.33 446.372H1580.76V448.5H1577.91C1575.64 448.5 1574.52 447.576 1574.52 445.336V437.692H1572.05V435.564H1574.52V431.084H1577.04V435.564H1580.57V437.692H1577.04V445.196C1577.04 446.092 1577.43 446.372 1578.33 446.372ZM1583.14 432.148V429.18H1585.88V432.148H1583.14ZM1583.25 448.5V435.564H1585.77V448.5H1583.25ZM1595.3 435.06C1599.14 435.06 1601.91 437.944 1601.91 442.032C1601.91 446.12 1599.14 449.004 1595.3 449.004C1591.47 449.004 1588.7 446.12 1588.7 442.032C1588.7 437.944 1591.47 435.06 1595.3 435.06ZM1595.3 437.244C1592.92 437.244 1591.3 439.176 1591.3 442.032C1591.3 444.888 1592.92 446.82 1595.3 446.82C1597.68 446.82 1599.31 444.888 1599.31 442.032C1599.31 439.176 1597.68 437.244 1595.3 437.244ZM1604.74 448.5V435.564H1607.12V437.916H1607.4C1608.01 436.32 1609.58 435.06 1611.74 435.06C1614.57 435.06 1616.61 437.244 1616.61 440.408V448.5H1614.09V440.884C1614.09 438.756 1612.97 437.468 1611.07 437.468C1608.88 437.468 1607.26 439.176 1607.26 442.256V448.5H1604.74ZM1627.33 448.5V429.18H1629.96V437.216H1639.65V429.18H1642.28V448.5H1639.65V439.624H1629.96V448.5H1627.33ZM1658.12 446.456H1658.62V448.5H1657.72C1656.49 448.5 1655.26 448.052 1654.98 446.372H1654.7C1654.08 447.856 1652.52 449.004 1650.08 449.004C1647.53 449.004 1645.49 447.716 1645.49 445.28C1645.49 443.348 1646.75 441.92 1648.93 441.304L1654.53 439.708C1654.42 438.196 1653.19 437.244 1651.59 437.244C1650.22 437.244 1648.85 437.944 1648.46 439.624H1646.13V438.896C1646.75 436.488 1648.85 435.06 1651.62 435.06C1655.01 435.06 1657.02 437.132 1657.02 440.1V445.168C1657.02 446.036 1657.3 446.456 1658.12 446.456ZM1650.53 446.988C1652.96 446.988 1654.53 445.168 1654.53 443.208V441.808L1650.05 443.124C1648.71 443.516 1648.04 444.188 1648.04 445.168C1648.04 446.372 1649.04 446.988 1650.53 446.988ZM1661.01 448.5V435.564H1663.39V437.916H1663.67C1664.29 436.32 1665.86 435.06 1668.01 435.06C1670.84 435.06 1672.88 437.244 1672.88 440.408V448.5H1670.36V440.884C1670.36 438.756 1669.24 437.468 1667.34 437.468C1665.16 437.468 1663.53 439.176 1663.53 442.256V448.5H1661.01ZM1681.34 435.06C1683.52 435.06 1685.01 436.264 1685.68 437.608H1685.96V429.18H1688.48V448.5H1686.1V446.316H1685.82C1685.2 447.66 1683.66 449.004 1681.37 449.004C1677.92 449.004 1675.43 446.008 1675.43 442.032C1675.43 438.056 1677.92 435.06 1681.34 435.06ZM1682.04 437.3C1679.66 437.3 1678.03 439.204 1678.03 442.032C1678.03 444.86 1679.66 446.764 1682.04 446.764C1684.39 446.764 1686.07 444.86 1686.07 442.032C1686.07 439.204 1684.39 437.3 1682.04 437.3ZM1692.13 448.5V429.18H1694.65V448.5H1692.13ZM1710.18 442.032V442.76H1699.99C1700.24 445.196 1701.78 446.848 1704.05 446.848C1705.78 446.848 1707.07 445.84 1707.46 444.328H1709.84V445.14C1709.26 446.988 1707.35 449.004 1704.05 449.004C1700.13 449.004 1697.47 446.092 1697.47 442.032C1697.47 437.944 1700.18 435.06 1703.99 435.06C1707.88 435.06 1710.18 437.972 1710.18 442.032ZM1703.96 437.132C1701.95 437.132 1700.49 438.532 1700.07 440.688H1707.63C1707.32 438.56 1706.04 437.132 1703.96 437.132ZM1712.91 448.5V435.564H1715.29V437.944H1715.57C1715.93 436.628 1716.94 435.424 1718.99 435.424H1721V437.72H1719.24C1716.77 437.72 1715.43 439.652 1715.43 442.312V448.5H1712.91ZM1727.4 435.06C1730.45 435.06 1732.19 436.572 1732.63 438.756V439.512H1730.37C1730.14 438.14 1729.25 437.188 1727.4 437.188C1725.86 437.188 1724.91 437.86 1724.91 438.84C1724.91 439.68 1725.58 440.212 1726.53 440.464L1729.55 441.276C1731.68 441.836 1732.97 443.152 1732.97 445.084C1732.97 447.576 1730.84 449.004 1727.76 449.004C1724.6 449.004 1722.55 447.52 1721.97 445V444.244H1724.26C1724.65 446.064 1725.94 446.876 1727.76 446.876C1729.44 446.876 1730.48 446.204 1730.48 445.112C1730.48 444.16 1729.69 443.656 1728.71 443.376L1725.63 442.536C1723.81 442.032 1722.44 440.8 1722.44 438.868C1722.44 436.544 1724.51 435.06 1727.4 435.06Z" fill="black"/>
<rect x="1459" y="393.5" width="328" height="88" rx="10" stroke="#121312" stroke-width="2"/>
<path d="M1501.12 557.284H1503.75C1504.17 560.112 1506.1 561.54 1509.02 561.54C1511.31 561.54 1513.33 560.588 1513.33 558.488C1513.33 556.808 1512.07 555.968 1510.61 555.548L1506.38 554.344C1503.75 553.588 1501.82 551.768 1501.82 549.08C1501.82 545.888 1504.65 543.676 1508.48 543.676C1512.04 543.676 1514.84 545.44 1515.62 549.024V550.004H1513.13C1512.77 547.568 1511.14 546.14 1508.48 546.14C1506.27 546.14 1504.54 547.176 1504.54 548.968C1504.54 550.284 1505.46 551.32 1507.25 551.824L1511.48 553.028C1514.08 553.784 1516.04 555.464 1516.04 558.404C1516.04 561.96 1513.1 564.004 1509.02 564.004C1504.7 564.004 1501.96 561.82 1501.12 558.264V557.284ZM1519.1 547.148V544.18H1521.85V547.148H1519.1ZM1519.21 563.5V550.564H1521.73V563.5H1519.21ZM1530.6 550.06C1532.64 550.06 1534.29 551.264 1534.96 552.748H1535.24V550.564H1537.62V563.472C1537.62 567.616 1534.99 570.192 1531.27 570.192C1528.13 570.192 1525.95 568.4 1525.16 565.908V565.18H1527.54C1528.02 566.832 1529.39 568.008 1531.27 568.008C1533.56 568.008 1535.1 566.272 1535.1 563.584V561.456H1534.82C1534.15 562.8 1532.67 564.004 1530.54 564.004C1527.15 564.004 1524.66 561.008 1524.66 557.032C1524.66 553.056 1527.15 550.06 1530.6 550.06ZM1531.24 552.3C1528.89 552.3 1527.26 554.204 1527.26 557.032C1527.26 559.86 1528.89 561.764 1531.24 561.764C1533.56 561.764 1535.22 559.86 1535.22 557.032C1535.22 554.204 1533.56 552.3 1531.24 552.3ZM1541.28 563.5V550.564H1543.66V552.916H1543.94C1544.55 551.32 1546.12 550.06 1548.28 550.06C1551.11 550.06 1553.15 552.244 1553.15 555.408V563.5H1550.63V555.884C1550.63 553.756 1549.51 552.468 1547.61 552.468C1545.42 552.468 1543.8 554.176 1543.8 557.256V563.5H1541.28ZM1568.32 561.456H1568.83V563.5H1567.93C1566.7 563.5 1565.47 563.052 1565.19 561.372H1564.91C1564.29 562.856 1562.72 564.004 1560.29 564.004C1557.74 564.004 1555.7 562.716 1555.7 560.28C1555.7 558.348 1556.96 556.92 1559.14 556.304L1564.74 554.708C1564.63 553.196 1563.4 552.244 1561.8 552.244C1560.43 552.244 1559.06 552.944 1558.66 554.624H1556.34V553.896C1556.96 551.488 1559.06 550.06 1561.83 550.06C1565.22 550.06 1567.23 552.132 1567.23 555.1V560.168C1567.23 561.036 1567.51 561.456 1568.32 561.456ZM1560.74 561.988C1563.17 561.988 1564.74 560.168 1564.74 558.208V556.808L1560.26 558.124C1558.92 558.516 1558.24 559.188 1558.24 560.168C1558.24 561.372 1559.25 561.988 1560.74 561.988ZM1575.73 561.372H1578.17V563.5H1575.31C1573.05 563.5 1571.93 562.576 1571.93 560.336V552.692H1569.46V550.564H1571.93V546.084H1574.45V550.564H1577.97V552.692H1574.45V560.196C1574.45 561.092 1574.84 561.372 1575.73 561.372ZM1592.13 550.564V563.5H1589.75V561.148H1589.47C1588.86 562.744 1587.29 564.004 1585.13 564.004C1582.31 564.004 1580.26 561.82 1580.26 558.656V550.564H1582.78V558.18C1582.78 560.308 1583.9 561.596 1585.81 561.596C1587.99 561.596 1589.61 559.888 1589.61 556.808V550.564H1592.13ZM1595.77 563.5V550.564H1598.15V552.944H1598.43C1598.8 551.628 1599.81 550.424 1601.85 550.424H1603.87V552.72H1602.1C1599.64 552.72 1598.29 554.652 1598.29 557.312V563.5H1595.77ZM1617.46 557.032V557.76H1607.27C1607.52 560.196 1609.06 561.848 1611.33 561.848C1613.07 561.848 1614.35 560.84 1614.75 559.328H1617.13V560.14C1616.54 561.988 1614.63 564.004 1611.33 564.004C1607.41 564.004 1604.75 561.092 1604.75 557.032C1604.75 552.944 1607.47 550.06 1611.27 550.06C1615.17 550.06 1617.46 552.972 1617.46 557.032ZM1611.25 552.132C1609.23 552.132 1607.77 553.532 1607.35 555.688H1614.91C1614.61 553.56 1613.32 552.132 1611.25 552.132ZM1625.85 545.16V544.18H1628.37L1633.02 558.404C1633.41 559.608 1633.66 560.42 1633.86 561.456H1634.28C1634.47 560.42 1634.72 559.608 1635.12 558.404L1639.79 544.18H1642.28V545.16L1636.01 563.5H1632.09L1625.85 545.16ZM1654.43 561.456H1654.93V563.5H1654.04C1652.8 563.5 1651.57 563.052 1651.29 561.372H1651.01C1650.4 562.856 1648.83 564.004 1646.39 564.004C1643.84 564.004 1641.8 562.716 1641.8 560.28C1641.8 558.348 1643.06 556.92 1645.24 556.304L1650.84 554.708C1650.73 553.196 1649.5 552.244 1647.9 552.244C1646.53 552.244 1645.16 552.944 1644.77 554.624H1642.44V553.896C1643.06 551.488 1645.16 550.06 1647.93 550.06C1651.32 550.06 1653.34 552.132 1653.34 555.1V560.168C1653.34 561.036 1653.62 561.456 1654.43 561.456ZM1646.84 561.988C1649.28 561.988 1650.84 560.168 1650.84 558.208V556.808L1646.36 558.124C1645.02 558.516 1644.35 559.188 1644.35 560.168C1644.35 561.372 1645.36 561.988 1646.84 561.988ZM1657.32 563.5V544.18H1659.84V563.5H1657.32ZM1663.48 547.148V544.18H1666.22V547.148H1663.48ZM1663.59 563.5V550.564H1666.11V563.5H1663.59ZM1674.94 550.06C1677.13 550.06 1678.61 551.264 1679.28 552.608H1679.56V544.18H1682.08V563.5H1679.7V561.316H1679.42C1678.81 562.66 1677.27 564.004 1674.97 564.004C1671.53 564.004 1669.04 561.008 1669.04 557.032C1669.04 553.056 1671.53 550.06 1674.94 550.06ZM1675.64 552.3C1673.26 552.3 1671.64 554.204 1671.64 557.032C1671.64 559.86 1673.26 561.764 1675.64 561.764C1678 561.764 1679.68 559.86 1679.68 557.032C1679.68 554.204 1678 552.3 1675.64 552.3ZM1697.55 561.456H1698.05V563.5H1697.16C1695.93 563.5 1694.69 563.052 1694.41 561.372H1694.13C1693.52 562.856 1691.95 564.004 1689.51 564.004C1686.97 564.004 1684.92 562.716 1684.92 560.28C1684.92 558.348 1686.18 556.92 1688.37 556.304L1693.97 554.708C1693.85 553.196 1692.62 552.244 1691.03 552.244C1689.65 552.244 1688.28 552.944 1687.89 554.624H1685.57V553.896C1686.18 551.488 1688.28 550.06 1691.05 550.06C1694.44 550.06 1696.46 552.132 1696.46 555.1V560.168C1696.46 561.036 1696.74 561.456 1697.55 561.456ZM1689.96 561.988C1692.4 561.988 1693.97 560.168 1693.97 558.208V556.808L1689.49 558.124C1688.14 558.516 1687.47 559.188 1687.47 560.168C1687.47 561.372 1688.48 561.988 1689.96 561.988ZM1704.96 561.372H1707.4V563.5H1704.54C1702.27 563.5 1701.15 562.576 1701.15 560.336V552.692H1698.69V550.564H1701.15V546.084H1703.67V550.564H1707.2V552.692H1703.67V560.196C1703.67 561.092 1704.06 561.372 1704.96 561.372ZM1715.57 550.06C1719.4 550.06 1722.17 552.944 1722.17 557.032C1722.17 561.12 1719.4 564.004 1715.57 564.004C1711.73 564.004 1708.96 561.12 1708.96 557.032C1708.96 552.944 1711.73 550.06 1715.57 550.06ZM1715.57 552.244C1713.19 552.244 1711.56 554.176 1711.56 557.032C1711.56 559.888 1713.19 561.82 1715.57 561.82C1717.95 561.82 1719.57 559.888 1719.57 557.032C1719.57 554.176 1717.95 552.244 1715.57 552.244ZM1725 563.5V550.564H1727.38V552.944H1727.66C1728.02 551.628 1729.03 550.424 1731.08 550.424H1733.09V552.72H1731.33C1728.86 552.72 1727.52 554.652 1727.52 557.312V563.5H1725ZM1739.49 550.06C1742.54 550.06 1744.28 551.572 1744.72 553.756V554.512H1742.46C1742.23 553.14 1741.34 552.188 1739.49 552.188C1737.95 552.188 1737 552.86 1737 553.84C1737 554.68 1737.67 555.212 1738.62 555.464L1741.64 556.276C1743.77 556.836 1745.06 558.152 1745.06 560.084C1745.06 562.576 1742.93 564.004 1739.85 564.004C1736.69 564.004 1734.64 562.52 1734.06 560V559.244H1736.35C1736.74 561.064 1738.03 561.876 1739.85 561.876C1741.53 561.876 1742.57 561.204 1742.57 560.112C1742.57 559.16 1741.78 558.656 1740.8 558.376L1737.72 557.536C1735.9 557.032 1734.53 555.8 1734.53 553.868C1734.53 551.544 1736.6 550.06 1739.49 550.06Z" fill="black"/>
<rect x="1459" y="508.5" width="328" height="88" rx="10" stroke="#121312" stroke-width="2"/>
<path d="M1614.79 678.5V675.448H1617.7V678.5H1614.79ZM1621.3 678.5V675.448H1624.21V678.5H1621.3ZM1627.81 678.5V675.448H1630.72V678.5H1627.81Z" fill="black"/>
<rect x="1459" y="623.5" width="328" height="88" rx="10" stroke="#121312" stroke-width="2"/>
<rect x="1393.5" y="65" width="459" height="674" rx="11.5" stroke="#121312" stroke-width="3"/>
<path d="M1566.18 866.5V847.18H1571.31L1575.14 859.36C1575.48 860.452 1575.7 861.488 1575.9 862.608H1576.32C1576.52 861.488 1576.77 860.452 1577.1 859.36L1580.97 847.18H1586.04V866.5H1583.4V849.224H1582.96L1577.89 865.016H1574.3L1569.26 849.224H1568.82V866.5H1566.18ZM1601.95 860.032V860.76H1591.75C1592.01 863.196 1593.55 864.848 1595.81 864.848C1597.55 864.848 1598.84 863.84 1599.23 862.328H1601.61V863.14C1601.02 864.988 1599.12 867.004 1595.81 867.004C1591.89 867.004 1589.23 864.092 1589.23 860.032C1589.23 855.944 1591.95 853.06 1595.76 853.06C1599.65 853.06 1601.95 855.972 1601.95 860.032ZM1595.73 855.132C1593.71 855.132 1592.26 856.532 1591.84 858.688H1599.4C1599.09 856.56 1597.8 855.132 1595.73 855.132ZM1609.33 864.372H1611.76V866.5H1608.91C1606.64 866.5 1605.52 865.576 1605.52 863.336V855.692H1603.05V853.564H1605.52V849.084H1608.04V853.564H1611.57V855.692H1608.04V863.196C1608.04 864.092 1608.43 864.372 1609.33 864.372ZM1625.95 864.456H1626.46V866.5H1625.56C1624.33 866.5 1623.1 866.052 1622.82 864.372H1622.54C1621.92 865.856 1620.35 867.004 1617.92 867.004C1615.37 867.004 1613.32 865.716 1613.32 863.28C1613.32 861.348 1614.58 859.92 1616.77 859.304L1622.37 857.708C1622.26 856.196 1621.02 855.244 1619.43 855.244C1618.06 855.244 1616.68 855.944 1616.29 857.624H1613.97V856.896C1614.58 854.488 1616.68 853.06 1619.46 853.06C1622.84 853.06 1624.86 855.132 1624.86 858.1V863.168C1624.86 864.036 1625.14 864.456 1625.95 864.456ZM1618.36 864.988C1620.8 864.988 1622.37 863.168 1622.37 861.208V859.808L1617.89 861.124C1616.54 861.516 1615.87 862.188 1615.87 863.168C1615.87 864.372 1616.88 864.988 1618.36 864.988ZM1633.94 853.06C1636.13 853.06 1637.61 854.264 1638.28 855.608H1638.56V847.18H1641.08V866.5H1638.7V864.316H1638.42C1637.81 865.66 1636.27 867.004 1633.97 867.004C1630.53 867.004 1628.04 864.008 1628.04 860.032C1628.04 856.056 1630.53 853.06 1633.94 853.06ZM1634.64 855.3C1632.26 855.3 1630.64 857.204 1630.64 860.032C1630.64 862.86 1632.26 864.764 1634.64 864.764C1637 864.764 1638.68 862.86 1638.68 860.032C1638.68 857.204 1637 855.3 1634.64 855.3ZM1656.55 864.456H1657.05V866.5H1656.16C1654.93 866.5 1653.69 866.052 1653.41 864.372H1653.13C1652.52 865.856 1650.95 867.004 1648.51 867.004C1645.97 867.004 1643.92 865.716 1643.92 863.28C1643.92 861.348 1645.18 859.92 1647.37 859.304L1652.97 857.708C1652.85 856.196 1651.62 855.244 1650.03 855.244C1648.65 855.244 1647.28 855.944 1646.89 857.624H1644.57V856.896C1645.18 854.488 1647.28 853.06 1650.05 853.06C1653.44 853.06 1655.46 855.132 1655.46 858.1V863.168C1655.46 864.036 1655.74 864.456 1656.55 864.456ZM1648.96 864.988C1651.4 864.988 1652.97 863.168 1652.97 861.208V859.808L1648.49 861.124C1647.14 861.516 1646.47 862.188 1646.47 863.168C1646.47 864.372 1647.48 864.988 1648.96 864.988ZM1663.96 864.372H1666.4V866.5H1663.54C1661.27 866.5 1660.15 865.576 1660.15 863.336V855.692H1657.69V853.564H1660.15V849.084H1662.67V853.564H1666.2V855.692H1662.67V863.196C1662.67 864.092 1663.06 864.372 1663.96 864.372ZM1680.59 864.456H1681.09V866.5H1680.19C1678.96 866.5 1677.73 866.052 1677.45 864.372H1677.17C1676.55 865.856 1674.99 867.004 1672.55 867.004C1670 867.004 1667.96 865.716 1667.96 863.28C1667.96 861.348 1669.22 859.92 1671.4 859.304L1677 857.708C1676.89 856.196 1675.66 855.244 1674.06 855.244C1672.69 855.244 1671.32 855.944 1670.93 857.624H1668.6V856.896C1669.22 854.488 1671.32 853.06 1674.09 853.06C1677.48 853.06 1679.49 855.132 1679.49 858.1V863.168C1679.49 864.036 1679.77 864.456 1680.59 864.456ZM1673 864.988C1675.43 864.988 1677 863.168 1677 861.208V859.808L1672.52 861.124C1671.18 861.516 1670.51 862.188 1670.51 863.168C1670.51 864.372 1671.51 864.988 1673 864.988Z" fill="black"/>
<rect x="1459" y="811.5" width="328" height="88" rx="10" stroke="#121312" stroke-width="2" stroke-dasharray="8 8"/>
<line x1="528" y1="321" x2="796" y2="321" stroke="black" stroke-width="3"/>
<line x1="1126" y1="321" x2="1394" y2="321" stroke="black" stroke-width="3"/>
<line x1="962.5" y1="373.5" x2="962.5" y2="569.5" stroke="black" stroke-width="3"/>
<line x1="1624" y1="740.5" x2="1624" y2="810.5" stroke="black" stroke-width="2" stroke-dasharray="8 8"/>
</svg>
